<svg width="100" height="100" viewBox="0 0 100 100" fill="none" xmlns="http://www.w3.org/2000/svg">
<circle cx="50" cy="50" r="50" fill="url(#paint0_radial_563_4518)"/>
<path d="M65.3102 43C66.0914 43 66.8727 43.7812 66.8727 44.5625V49.25C66.8727 57.9414 60.3297 65.168 52.0289 66.3398V69.5625H57.4977C58.2789 69.5625 59.0602 70.3438 59.0602 71.125V72.6875C59.0602 73.5664 58.2789 74.25 57.4977 74.25H41.8727C40.9938 74.25 40.3102 73.5664 40.3102 72.6875V71.125C40.3102 70.3438 40.9938 69.5625 41.8727 69.5625H47.3414V66.2422C38.65 65.0703 32.4977 57.2578 32.4977 48.5664V44.5625C32.4977 43.7812 33.1813 43 34.0602 43H35.6227C36.4039 43 37.1852 43.7812 37.1852 44.5625V48.7617C37.1852 55.3047 41.8727 61.0664 48.4157 61.75C55.8375 62.4336 62.1852 56.5742 62.1852 49.25V44.5625C62.1852 43.7812 62.8688 43 63.7477 43H65.3102ZM49.6852 58.625C44.4117 58.625 40.3102 54.5234 40.3102 49.25V33.625C40.3102 28.4492 44.4117 24.25 49.6852 24.25C54.861 24.25 59.0602 28.4492 59.0602 33.625H50.6617C50.0758 33.625 49.6852 34.0156 49.6852 34.4062V35.9688C49.6852 36.457 50.0758 36.75 50.6617 36.75H59.0602V39.875H50.6617C50.0758 39.875 49.6852 40.2656 49.6852 40.6562V42.2188C49.6852 42.707 50.0758 43 50.6617 43H59.0602V46.125H50.6617C50.0758 46.125 49.6852 46.5156 49.6852 46.9062V48.4688C49.6852 48.957 50.0758 49.25 50.6617 49.25H59.0602C59.0602 54.5234 54.861 58.625 49.6852 58.625Z" fill="white"/>
<defs>
<radialGradient id="paint0_radial_563_4518" cx="0" cy="0" r="1" gradientUnits="userSpaceOnUse" gradientTransform="translate(35.5556 17.7778) rotate(66.6148) scale(89.5806)">
<stop stop-color="#587692"/>
<stop offset="1" stop-color="#03182C"/>
</radialGradient>
</defs>
</svg>
