<svg width="100" height="100" viewBox="0 0 100 100" fill="none" xmlns="http://www.w3.org/2000/svg">
<circle cx="50" cy="50" r="50" fill="url(#paint0_radial_563_5849)"/>
<path d="M25.8571 38.8008C24.1969 38.0195 24.1969 35.5781 25.8571 34.7969L48.611 24.543C48.9039 24.3477 49.2946 24.3477 49.6852 24.3477C49.9782 24.3477 50.3688 24.3477 50.6617 24.543L73.4157 34.7969C75.0758 35.5781 75.0758 38.0195 73.4157 38.8008L50.6617 49.0547C49.9782 49.3477 49.2946 49.3477 48.611 49.0547L25.8571 38.8008ZM73.4157 47.3945C75.0758 48.0781 75.0758 50.5195 73.4157 51.3008L50.6617 61.5547C49.9782 61.8477 49.2946 61.8477 48.611 61.5547L25.8571 51.3008C24.1969 50.5195 24.1969 48.0781 25.8571 47.3945L31.5211 44.7578L47.3414 51.9844C48.025 52.2773 48.8063 52.4727 49.6852 52.4727C50.4664 52.4727 51.2477 52.2773 51.9313 51.9844L67.7516 44.7578L73.4157 47.3945ZM73.4157 59.8945C75.0758 60.5781 75.0758 63.0195 73.4157 63.8008L50.6617 74.0547C49.9782 74.3477 49.2946 74.3477 48.611 74.0547L25.8571 63.8008C24.1969 63.0195 24.1969 60.5781 25.8571 59.8945L31.5211 57.2578L47.3414 64.4844C48.025 64.7773 48.8063 64.9727 49.6852 64.9727C50.4664 64.9727 51.2477 64.7773 51.9313 64.4844L67.7516 57.2578L73.4157 59.8945Z" fill="white"/>
<defs>
<radialGradient id="paint0_radial_563_5849" cx="0" cy="0" r="1" gradientUnits="userSpaceOnUse" gradientTransform="translate(35.5556 17.7778) rotate(66.6148) scale(89.5806)">
<stop stop-color="#587692"/>
<stop offset="1" stop-color="#03182C"/>
</radialGradient>
</defs>
</svg>
