<svg width="100" height="100" viewBox="0 0 100 100" fill="none" xmlns="http://www.w3.org/2000/svg">
<circle cx="50" cy="50" r="48.5" fill="#F3F9F8" stroke="#03182C" stroke-width="3"/>
<path d="M74.6852 38.3125V66.4375C74.6852 69.0742 72.5367 71.125 69.9977 71.125H29.3727C26.736 71.125 24.6852 69.0742 24.6852 66.4375V38.3125C24.6852 35.7734 26.736 33.625 29.3727 33.625H37.9664L39.1383 30.5C39.8219 28.6445 41.5797 27.375 43.5328 27.375H55.7399C57.693 27.375 59.4508 28.6445 60.1344 30.5L61.4039 33.625H69.9977C72.5367 33.625 74.6852 35.7734 74.6852 38.3125ZM61.4039 52.375C61.4039 45.9297 56.1305 40.6562 49.6852 40.6562C43.1422 40.6562 37.9664 45.9297 37.9664 52.375C37.9664 58.918 43.1422 64.0938 49.6852 64.0938C56.1305 64.0938 61.4039 58.918 61.4039 52.375ZM58.2789 52.375C58.2789 57.1602 54.3727 60.9688 49.6852 60.9688C44.9 60.9688 41.0914 57.1602 41.0914 52.375C41.0914 47.6875 44.9 43.7812 49.6852 43.7812C54.3727 43.7812 58.2789 47.6875 58.2789 52.375Z" fill="#03182C"/>
</svg>
