<svg width="100" height="100" viewBox="0 0 100 100" fill="none" xmlns="http://www.w3.org/2000/svg">
<circle cx="50" cy="50" r="50" fill="url(#paint0_radial_563_4521)"/>
<path d="M49.6852 24.25C56.4235 24.25 61.9899 29.8164 61.9899 36.5547C61.9899 42.1211 53.8844 52.082 50.8571 55.793C50.1735 56.4766 49.0992 56.4766 48.4157 55.793C45.3883 52.082 37.3805 42.1211 37.3805 36.5547C37.3805 29.8164 42.8492 24.25 49.6852 24.25ZM49.6852 40.6562C51.9313 40.6562 53.7867 38.8984 53.7867 36.5547C53.7867 34.3086 51.9313 32.4531 49.6852 32.4531C47.3414 32.4531 45.5836 34.3086 45.5836 36.5547C45.5836 38.8984 47.3414 40.6562 49.6852 40.6562ZM23.5133 45.3438L35.0367 40.7539C35.525 42.2188 36.3063 43.6836 37.1852 45.2461V68L23.611 74.1523C22.6344 74.6406 21.5602 73.8594 21.5602 72.6875V48.2734C21.5602 47.0039 22.3414 45.832 23.5133 45.3438ZM49.6852 59.4062C51.0524 59.4062 52.3219 58.8203 53.2008 57.7461C55.1539 55.5 57.2047 52.9609 59.0602 50.2266V74.25L40.3102 68V50.2266C42.068 52.9609 44.1188 55.5 46.0719 57.7461C46.9508 58.8203 48.2203 59.4062 49.6852 59.4062ZM75.6617 40.0703C76.6383 39.582 77.8102 40.3633 77.8102 41.5352V65.9492C77.8102 67.2188 76.9313 68.3906 75.7594 68.8789L62.1852 74.25V46.125L75.6617 40.0703Z" fill="white"/>
<defs>
<radialGradient id="paint0_radial_563_4521" cx="0" cy="0" r="1" gradientUnits="userSpaceOnUse" gradientTransform="translate(35.5556 17.7778) rotate(66.6148) scale(89.5806)">
<stop stop-color="#587692"/>
<stop offset="1" stop-color="#03182C"/>
</radialGradient>
</defs>
</svg>
