<svg width="100" height="100" viewBox="0 0 100 100" fill="none" xmlns="http://www.w3.org/2000/svg">
<circle cx="50" cy="50" r="50" fill="url(#paint0_radial_563_4520)"/>
<path d="M72.3414 36.75C73.611 36.75 74.6852 37.8242 74.6852 39.0938V46.9062C74.6852 48.2734 73.611 49.25 72.3414 49.25H71.5602V65.5586C71.5602 66.8281 70.5836 68 69.0211 68H68.4352V71.125C68.4352 72.8828 66.9703 74.25 65.3102 74.25H62.1852C60.4274 74.25 59.0602 72.8828 59.0602 71.125V68H40.3102V71.125C40.3102 72.8828 38.8453 74.25 37.1852 74.25H34.0602C32.3024 74.25 30.9352 72.8828 30.9352 71.125V68C29.1774 68 27.8102 66.6328 27.8102 64.875V49.25H27.0289C25.6617 49.25 24.6852 48.2734 24.6852 46.9062V39.0938C24.6852 37.8242 25.6617 36.75 27.0289 36.75H27.8102V32.0625C27.8102 27.7656 37.4782 24.25 49.6852 24.25C61.7946 24.25 71.5602 27.7656 71.5602 32.0625V36.75H72.3414ZM40.3102 31.2812V32.8438C40.3102 33.332 40.6032 33.625 41.0914 33.625H58.2789C58.6696 33.625 59.0602 33.332 59.0602 32.8438V31.2812C59.0602 30.8906 58.6696 30.5 58.2789 30.5H41.0914C40.6032 30.5 40.3102 30.8906 40.3102 31.2812ZM35.6227 63.3125C37.2828 63.3125 38.7477 61.9453 38.7477 60.1875C38.7477 58.5273 37.2828 57.0625 35.6227 57.0625C33.8649 57.0625 32.4977 58.5273 32.4977 60.1875C32.4977 61.9453 33.8649 63.3125 35.6227 63.3125ZM48.1227 52.375V36.75H37.1852C35.4274 36.75 34.0602 38.2148 34.0602 39.875V49.25C34.0602 51.0078 35.4274 52.375 37.1852 52.375H48.1227ZM51.2477 52.375H62.1852C63.8453 52.375 65.3102 51.0078 65.3102 49.25V39.875C65.3102 38.2148 63.8453 36.75 62.1852 36.75H51.2477V52.375ZM63.7477 63.3125C65.4078 63.3125 66.8727 61.9453 66.8727 60.1875C66.8727 58.5273 65.4078 57.0625 63.7477 57.0625C61.9899 57.0625 60.6227 58.5273 60.6227 60.1875C60.6227 61.9453 61.9899 63.3125 63.7477 63.3125Z" fill="white"/>
<defs>
<radialGradient id="paint0_radial_563_4520" cx="0" cy="0" r="1" gradientUnits="userSpaceOnUse" gradientTransform="translate(35.5556 17.7778) rotate(66.6148) scale(89.5806)">
<stop stop-color="#587692"/>
<stop offset="1" stop-color="#03182C"/>
</radialGradient>
</defs>
</svg>
